<?xml version="1.0" encoding="UTF-8"?>
<svg id="Layer_2" data-name="Layer 2" xmlns="http://www.w3.org/2000/svg" viewBox="0 0 181.37 156.59">
  <defs>
    <style>
      .cls-1 {
        fill: #60a5fa;
      }

      .cls-2 {
        fill: #fff;
      }
    </style>
  </defs>
  <g id="Layer_1-2" data-name="Layer 1">
    <circle class="cls-1" cx="90.68" cy="90.7" r="16.35"/>
    <path class="cls-2" d="M181.37,156.14l-36.85-63.58-14.38,22.41-7.38-12.66,13.51-24.24L90.18,0l-45.9,78.38,13.8,22.8-8.24,14.48-13.63-22.47L0,156.14h37.1l13.24-21.94,12.73,22.39,27.44-46.95,26.85,46.5,12.78-22.65,12.89,22.65h38.35ZM31.15,147.35h-15.33l20.9-36.54,8.16,13.98-13.73,22.56ZM90.62,92.64l-27.01,47.86-8.36-15.44,12.54-23.39-11.64-23.61,34.04-59.64,34.66,59.64-12.74,23.73,13.81,23.32-7.85,14.07-27.45-46.55M143.61,110.05l21.31,37.3h-16.63l-13.64-23.64,8.96-13.66Z"/>
  </g>
</svg>